Coordinates
version=1
nRows=11
nColumns=40
inDegrees=yes

Units are S.I. units (second, meters, Newtons, ...)
Angles are in degrees.

endheader
time	pelvis_tilt	pelvis_list	pelvis_rotation	pelvis_tx	pelvis_ty	pelvis_tz	hip_flexion_r	hip_adduction_r	hip_rotation_r	knee_angle_r	knee_angle_r_beta	ankle_angle_r	subtalar_angle_r	mtp_angle_r	hip_flexion_l	hip_adduction_l	hip_rotation_l	knee_angle_l	knee_angle_l_beta	ankle_angle_l	subtalar_angle_l	mtp_angle_l	lumbar_extension	lumbar_bending	lumbar_rotation	arm_flex_r	arm_add_r	arm_rot_r	elbow_flex_r	pro_sup_r	wrist_flex_r	wrist_dev_r	arm_flex_l	arm_add_l	arm_rot_l	elbow_flex_l	pro_sup_l	wrist_flex_l	wrist_dev_l
     45.58500000	     -8.01548060	     -3.99164068	      2.18226113	      1.06299977	      0.91664910	      0.43481065	      8.25679231	     -2.39282685	    -11.97189655	     38.21514634	     38.21514634	     11.33623537	     -9.00175977	    -11.15537928	     30.45079214	     -4.28113030	     -0.73391137	     25.52661936	     25.52661936	      6.42391567	    -10.66026793	      2.80915723	     -9.66439741	      2.47325817	      4.00171376	     24.52854327	    -12.60899274	     20.93785488	     76.19635526	     45.31205782	      0.00000000	      0.00000000	     -1.56582144	     -8.13625815	    -13.52537863	     40.65836973	     46.44378581	      0.00000000	      0.00000000
     45.59714286	     -7.95695467	     -3.81977561	      1.84705102	      1.06370022	      0.91797916	      0.43318871	     10.24308315	     -3.16093325	    -11.47960894	     42.47052790	     42.47052790	      9.57195149	    -10.47772736	    -11.07473066	     29.61266460	     -4.20170138	     -1.24963542	     25.29827837	     25.29827837	      6.95331878	    -10.40534787	      2.64032959	     -9.81877779	      2.29644317	      4.16144143	     23.16597356	    -13.06304745	     21.53617071	     74.30646436	     45.34493312	      0.00000000	      0.00000000	     -1.02892901	     -8.39534988	    -13.64841096	     41.43040366	     46.46955664	      0.00000000	      0.00000000
     45.60928571	     -7.84804759	     -3.68047126	      1.56083721	      1.06426174	      0.91916721	      0.43165729	     12.29099000	     -3.78605903	    -10.86757615	     46.75664538	     46.75664538	      7.77251280	    -12.26522144	    -10.62541103	     28.77385676	     -4.12909258	     -1.69218722	     25.13372607	     25.13372607	      7.47234996	    -10.16810975	      2.41431099	    -10.02263997	      2.16931847	      4.31484552	     21.80727450	    -13.56821944	     22.07044497	     72.29252670	     45.38459273	      0.00000000	      0.00000000	     -0.39904937	     -8.65096364	    -13.73796053	     42.28288604	     46.49330943	      0.00000000	      0.00000000
     45.62142857	     -7.83353593	     -3.78062405	      1.21892403	      1.06465037	      0.92020450	      0.43063180	     14.64208766	     -3.86326519	     -9.88339382	     51.19386387	     51.19386387	      7.00222882	    -13.98438336	     -6.58240713	     28.05802705	     -4.40303871	     -2.31616477	     24.95328931	     24.95328931	      7.90942172	     -9.54609394	      1.89995901	     -9.95001878	      2.28433894	      3.13573217	     22.41197491	    -12.56381263	     23.92024436	     65.35463911	     45.53007454	      0.00000000	      0.00000000	     -1.66097437	     -9.28735520	    -13.73746263	     45.51912496	     46.51515264	      0.00000000	      0.00000000
     45.63357143	     -7.73784901	     -3.58783633	      0.94031143	      1.06489045	      0.92109081	      0.42924086	     16.86835633	     -4.44360850	     -9.25614394	     55.40586784	     55.40586784	      5.47807940	    -15.45053487	     -5.92808703	     27.22814413	     -4.23532417	     -2.70404390	     24.72836090	     24.72836090	      8.28496735	     -9.48364306	      1.76031150	    -10.14848022	      2.13522974	      3.28601010	     20.90194527	    -13.34412420	     24.39067378	     63.97402041	     45.54786535	      0.00000000	      0.00000000	     -1.04205415	     -9.56377653	    -13.93991667	     46.31106133	     46.55093445	      0.00000000	      0.00000000
     45.64571429	     -7.64039266	     -3.57297318	      0.69326135	      1.06500779	      0.92192763	      0.42808298	     19.26599068	     -4.64024820	     -8.48924469	     59.77734286	     59.77734286	      5.94828445	    -16.03554943	      0.20565957	     26.42536653	     -4.25115481	     -2.98554031	     24.49726821	     24.49726821	      8.52047885	     -9.39760637	      1.20821850	    -10.27102371	      2.17495189	      2.54795412	     20.67311772	    -13.12183757	     25.52990494	     59.19116535	     45.62799730	      0.00000000	      0.00000000	     -1.76067931	    -10.01376798	    -14.18110255	     49.27122442	     46.61664787	      0.00000000	      0.00000000
     45.65785714	     -7.44840133	     -3.41226144	      0.52769699	      1.06506251	      0.92281556	      0.42671909	     21.34253617	     -5.07505163	     -7.93448467	     63.49651955	     63.49651955	      4.76145558	    -17.28417102	      0.55010810	     25.55269511	     -4.05950455	     -3.22066151	     24.32428174	     24.32428174	      8.89436412	     -9.33845457	      1.09159431	    -10.59244525	      2.12486841	      2.37586161	     19.14724740	    -13.97603528	     25.73315087	     58.03597480	     45.64826822	      0.00000000	      0.00000000	     -1.15675749	    -10.38399319	    -14.36381942	     49.84291603	     46.64764813	      0.00000000	      0.00000000
     45.67000000	     -7.36369589	     -3.38480296	      0.31450705	      1.06497227	      0.92361246	      0.42563046	     23.66516164	     -5.19585642	     -7.22591721	     67.20532513	     67.20532513	      5.26719428	    -17.72183098	      5.20012718	     24.75068914	     -3.99389088	     -3.31525932	     24.02574088	     24.02574088	      9.11462753	     -9.50308472	      0.83858026	    -10.70529935	      2.20999562	      2.10970498	     18.32609576	    -13.94323530	     25.28590922	     53.76541121	     45.77399898	      0.00000000	      0.00000000	     -1.40285046	    -10.72133912	    -14.29412947	     52.32990897	     46.68929410	      0.00000000	      0.00000000
     45.68214286	     -7.21620962	     -3.28263906	      0.16036339	      1.06484324	      0.92445202	      0.42440927	     25.71092321	     -5.50916434	     -6.72420333	     70.30417529	     70.30417529	      4.65812097	    -18.37401357	      5.48465429	     23.91436325	     -3.84110290	     -3.47077901	     23.78769550	     23.78769550	      9.46022229	     -9.49712350	      0.77905375	    -10.95539813	      2.28133606	      1.97779042	     16.77829043	    -14.89018540	     25.32612112	     52.49262176	     45.80264905	      0.00000000	      0.00000000	     -0.86655164	    -11.00349352	    -14.47167558	     53.02423012	     46.72134122	      0.00000000	      0.00000000
     45.69428571	     -7.11031575	     -3.18169463	     -0.00775308	      1.06462154	      0.92527715	      0.42334822	     27.77382588	     -5.74394142	     -6.15562540	     73.06206806	     73.06206806	      4.40599697	    -18.72988866	      6.17787166	     23.09623681	     -3.67456733	     -3.52771641	     23.48547889	     23.48547889	      9.78015884	     -9.59158633	      0.77216627	    -11.14430473	      2.34731441	      2.05617349	     15.20580130	    -15.81273956	     25.15058412	     50.71166631	     45.85777037	      0.00000000	      0.00000000	     -0.33444901	    -11.16293923	    -14.58212352	     54.15491791	     46.75336353	      0.00000000	      0.00000000
     45.70642857	     -6.90501019	     -3.25168187	     -0.08902845	      1.06435334	      0.92633967	      0.42246811	     29.70273148	     -5.66635349	     -5.63217122	     75.50900700	     75.50900700	      5.36130293	    -18.80357455	     10.37664719	     22.19901774	     -3.64123016	     -3.34665588	     23.18483561	     23.18483561	     10.01631386	     -9.90742401	      0.78263084	    -11.48080853	      2.58385807	      1.43244250	     14.41782662	    -15.43581355	     22.71557299	     46.44121783	     46.07490527	      0.00000000	      0.00000000	     -0.91531598	    -11.71298847	    -14.34729879	     56.98680510	     46.79235759	      0.00000000	      0.00000000
